runtti.glyphspackage
{
glyphname = exclam;
layers = (
{
layerId = m01;
shapes = (
{
closed = 1;
nodes = (
(28,-39,l),
(-10,-6,l),
(261,0,l),
(209,-33,l),
(219,205,l),
(259,157,l),
(23,161,l),
(46,209,l)
);
},
{
closed = 1;
nodes = (
(65,925,l),
(55,215,l),
(13,240,l),
(259,237,l),
(209,198,l),
(286,907,l),
(328,820,l),
(11,820,l)
);
}
);
width = 314;
}
);
unicode = 33;
}
{
glyphname = asterisk;
layers = (
{
layerId = m01;
shapes = (
{
closed = 1;
nodes = (
(-1,676,l),
(-4,708,l),
(70,589,l),
(14,608,l),
(123,681,l),
(247,737,l),
(249,706,l),
(175,825,l),
(231,806,l),
(122,733,l)
);
},
{
closed = 1;
nodes = (
(16,808,l),
(72,825,l),
(-4,708,l),
(0,739,l),
(122,681,l),
(229,606,l),
(173,589,l),
(249,706,l),
(245,675,l),
(123,733,l)
);
},
{
closed = 1;
nodes = (
(82,586,l),
(54,600,l),
(195,601,l),
(152,571,l),
(144,695,l),
(160,828,l),
(187,814,l),
(46,813,l),
(90,851,l),
(98,719,l)
);
}
);
width = 246;
}
);
metricLeft = "=12";
metricRight = "=12";
unicode = 42;
}
{
glyphname = comma;
kernLeft = period;
kernRight = period;
layers = (
{
layerId = m01;
shapes = (
{
closed = 1;
nodes = (
(109,28,l),
(99,-139,l),
(72,-73,l),
(196,-89,l),
(151,-146,l),
(230,183,l),
(272,82,l),
(162,226,l),
(221,161,l),
(-9,160,l),
(43,193,l),
(33,-45,l),
(-7,-2,l),
(159,2,l)
);
}
);
width = 257;
}
);
metricLeft = period;
metricRight = period;
unicode = 44;
}
{
glyphname = hyphen;
layers = (
{
layerId = m01;
shapes = (
{
closed = 1;
nodes = (
(-46,278,l),
(243,283,l),
(417,280,l),
(326,225,l),
(339,423,l),
(425,374,l),
(201,373,l),
(-58,378,l),
(45,423,l),
(31,212,l)
);
}
);
width = 371;
},
{
associatedMasterId = m01;
layerId = "90B188D5-7973-4FFF-B4F1-FD8B477D045A";
name = "001";
shapes = (
{
closed = 1;
nodes = (
(338,423,l),
(397,386,l),
(6,391,l),
(44,423,l),
(30,212,l),
(-51,256,l),
(399,267,l),
(324,213,l)
);
}
);
width = 369;
}
);
metricLeft = "=35";
metricRight = "=35";
unicode = 45;
}
{
glyphname = slash;
layers = (
{
layerId = m01;
shapes = (
{
closed = 1;
nodes = (
(244,888,l),
(48,106,l),
(166,555,l),
(-50,-228,l),
(-97,-175,l),
(127,-175,l),
(61,-228,l),
(257,555,l),
(140,106,l),
(355,888,l),
(405,845,l),
(158,845,l)
);
}
);
width = 353;
}
);
unicode = 47;
}
{
glyphname = zero;
kernLeft = "0";
kernRight = "0";
layers = (
{
layerId = m01;
shapes = (
{
closed = 1;
nodes = (
(30,15,l),
(-101,159,l),
(441,-50,l),
(275,-59,l),
(733,160,l),
(554,0,l),
(641,774,l),
(732,636,l),
(197,848,l),
(399,860,l),
(-87,610,l),
(67,790,l)
);
},
{
closed = 1;
nodes = (
(526,548,l),
(414,626,l),
(399,117,l),
(473,245,l),
(314,155,l),
(433,176,l),
(149,238,l),
(247,128,l),
(232,675,l),
(161,557,l),
(320,646,l),
(201,629,l)
);
}
);
width = 655;
}
);
unicode = 48;
}
{
glyphname = two;
kernLeft = "2";
kernRight = "2";
layers = (
{
layerId = m01;
shapes = (
{
closed = 1;
nodes = (
(52,382,l),
(20,-70,l),
(-11,0,l),
(613,-4,l),
(515,-69,l),
(540,319,l),
(650,200,l),
(150,159,l),
(218,116,l),
(218,295,l),
(192,167,l),
(571,452,l),
(506,348,l),
(557,798,l),
(662,635,l),
(301,821,l),
(402,825,l),
(9,753,l),
(28,831,l),
(134,463,l),
(76,564,l),
(319,637,l),
(248,645,l),
(361,576,l),
(338,628,l),
(331,392,l),
(389,536,l),
(-147,88,l)
);
}
);
width = 580;
}
);
unicode = 50;
}
{
glyphname = three;
kernLeft = "3";
kernRight = "3";
layers = (
{
layerId = m01;
shapes = (
{
closed = 1;
nodes = (
(403,266,l),
(336,396,l),
(318,115,l),
(356,189,l),
(238,128,l),
(338,143,l),
(32,229,l),
(90,322,l),
(-16,-46,l),
(-35,32,l),
(338,-28,l),
(269,-28,l),
(634,137,l),
(491,-24,l),
(545,501,l),
(618,344,l),
(363,437,l),
(351,409,l),
(576,518,l),
(498,348,l),
(549,798,l),
(653,631,l),
(243,822,l),
(337,819,l),
(-5,777,l),
(14,855,l),
(120,487,l),
(62,588,l),
(254,631,l),
(187,647,l),
(351,578,l),
(333,628,l),
(326,392,l),
(392,543,l),
(130,408,l),
(182,484,l),
(166,295,l),
(128,358,l)
);
}
);
width = 576;
},
{
associatedMasterId = m01;
layerId = "50E43BDD-E076-46F1-97EA-411294720314";
name = "001";
shapes = (
{
closed = 1;
nodes = (
(391,550,l),
(229,436,l),
(278,376,l),
(575,523,l),
(497,348,l),
(548,798,l),
(652,631,l),
(282,822,l),
(376,823,l),
(-4,753,l),
(15,831,l),
(121,463,l),
(63,562,l),
(293,633,l),
(226,645,l),
(350,576,l),
(330,628,l),
(323,392,l)
);
},
{
closed = 1;
nodes = (
(181,386,l),
(402,278,l),
(333,396,l),
(315,115,l),
(355,191,l),
(237,130,l),
(337,145,l),
(31,231,l),
(89,322,l),
(-17,-46,l),
(-36,32,l),
(337,-28,l),
(268,-28,l),
(633,137,l),
(490,-24,l),
(544,501,l),
(617,344,l),
(342,459,l)
);
},
{
closed = 1;
nodes = (
(98,493,l),
(138,560,l),
(136,310,l),
(112,344,l),
(385,357,l),
(390,484,l)
);
}
);
width = 586;
}
);
unicode = 51;
}
{
glyphname = five;
kernLeft = "5";
kernRight = "5";
layers = (
{
layerId = m01;
shapes = (
{
closed = 1;
nodes = (
(106,821,l),
(60,311,l),
(2,397,l),
(285,284,l),
(87,304,l),
(382,324,l),
(252,379,l),
(389,260,l),
(342,396,l),
(324,115,l),
(373,189,l),
(255,128,l),
(355,133,l),
(12,224,l),
(70,327,l),
(-36,-41,l),
(-55,37,l),
(355,-28,l),
(286,-28,l),
(639,137,l),
(496,-24,l),
(560,501,l),
(624,335,l),
(298,535,l),
(490,474,l),
(232,470,l),
(260,436,l),
(269,680,l),
(196,631,l),
(626,592,l),
(524,548,l),
(543,842,l),
(598,793,l),
(39,790,l)
);
}
);
width = 601;
}
);
unicode = 53;
}
{
glyphname = six;
kernLeft = "0";
kernRight = "6";
layers = (
{
layerId = m01;
shapes = (
{
closed = 1;
nodes = (
(371,591,l),
(189,383,l),
(182,407,l),
(461,321,l),
(373,370,l),
(366,82,l),
(397,210,l),
(312,147,l),
(386,160,l),
(148,222,l),
(234,128,l),
(244,403,l),
(318,466,l),
(320,444,l),
(223,474,l),
(250,419,l),
(270,675,l),
(193,597,l),
(352,686,l),
(275,662,l),
(571,573,l),
(506,513,l),
(596,884,l),
(599,770,l),
(258,816,l),
(401,859,l),
(-85,610,l),
(81,790,l),
(28,15,l),
(-102,159,l),
(394,-50,l),
(261,-58,l),
(681,178,l),
(523,-49,l),
(585,466,l),
(677,396,l),
(315,554,l)
);
}
);
width = 610;
}
);
metricLeft = zero;
unicode = 54;
}
{
glyphname = question;
layers = (
{
layerId = m01;
shapes = (
{
closed = 1;
nodes = (
(25,-39,l),
(-13,-6,l),
(258,0,l),
(206,-33,l),
(216,205,l),
(256,157,l),
(20,161,l),
(43,209,l)
);
},
{
closed = 1;
nodes = (
(262,431,l),
(323,537,l),
(204,465,l),
(335,493,l),
(51,517,l),
(202,546,l),
(1,423,l),
(58,515,l),
(48,214,l),
(5,240,l),
(251,236,l),
(207,208,l),
(227,418,l),
(192,337,l),
(263,386,l),
(173,374,l),
(416,336,l),
(221,308,l),
(521,504,l),
(425,318,l),
(477,804,l),
(513,674,l),
(204,855,l),
(320,842,l),
(-44,824,l),
(-1,866,l),
(28,575,l),
(-3,629,l),
(329,667,l),
(196,674,l),
(308,583,l),
(290,706,l)
);
}
);
width = 452;
}
);
unicode = 63;
}
{
glyphname = C;
kernLeft = C;
kernRight = C;
layers = (
{
anchors = (
{
name = bottom;
pos = (270,0);
},
{
name = top;
pos = (334,790);
}
);
layerId = m01;
shapes = (
{
closed = 1;
nodes = (
(512,548,l),
(571,837,l),
(643,777,l),
(225,816,l),
(414,856,l),
(-62,626,l),
(94,795,l),
(26,15,l),
(-25,134,l),
(374,-49,l),
(160,-13,l),
(581,-1,l),
(517,-38,l),
(508,255,l),
(550,195,l),
(295,165,l),
(438,156,l),
(213,212,l),
(242,141,l),
(268,637,l),
(217,586,l),
(340,655,l),
(248,635,l),
(559,583,l)
);
}
);
width = 539;
}
);
metricLeft = O;
unicode = 67;
}
{
glyphname = H;
kernLeft = H;
kernRight = H;
layers = (
{
layerId = m01;
shapes = (
{
closed = 1;
nodes = (
(411,-54,l),
(368,85,l),
(482,-55,l),
(383,0,l),
(748,-3,l),
(674,-52,l),
(693,242,l),
(776,197,l),
(554,177,l),
(605,94,l),
(675,873,l),
(696,790,l),
(416,790,l),
(465,873,l)
);
},
{
closed = 1;
nodes = (
(301,844,l),
(344,705,l),
(230,845,l),
(329,790,l),
(-36,793,l),
(38,842,l),
(19,548,l),
(-64,593,l),
(158,613,l),
(107,696,l),
(37,-83,l),
(16,0,l),
(296,0,l),
(247,-83,l)
);
},
{
closed = 1;
nodes = (
(182,304,l),
(514,388,l),
(517,499,l),
(181,413,l)
);
}
);
width = 712;
},
{
associatedMasterId = m01;
layerId = "436658A5-A197-47C3-9A80-53E58184A6C3";
name = "000";
shapes = (
{
closed = 1;
nodes = (
(337,0,l),
(666,-3,l),
(592,-52,l),
(611,242,l),
(694,202,l),
(428,164,l),
(515,109,l),
(620,571,l),
(680,483,l),
(268,642,l),
(343,641,l),
(161,433,l),
(145,452,l),
(456,393,l),
(383,466,l),
(316,-36,l),
(275,90,l),
(389,-50,l)
);
},
{
closed = 1;
nodes = (
(79,825,l),
(10,-63,l),
(-20,0,l),
(266,0,l),
(219,-63,l),
(236,582,l),
(278,499,l),
(185,525,l),
(224,494,l),
(244,715,l),
(206,664,l),
(355,741,l),
(216,698,l),
(657,602,l),
(542,569,l),
(707,868,l),
(702,798,l),
(625,842,l),
(672,868,l),
(591,777,l),
(623,787,l),
(250,900,l),
(416,906,l),
(23,728,l)
);
}
);
width = 691;
}
);
unicode = 72;
}
{
glyphname = I;
kernLeft = H;
kernRight = I;
layers = (
{
anchors = (
{
name = ogonek;
pos = (168,0);
},
{
name = top;
pos = (195,790);
}
);
layerId = m01;
shapes = (
{
closed = 1;
nodes = (
(301,844,l),
(344,705,l),
(230,845,l),
(329,790,l),
(-36,793,l),
(38,842,l),
(19,548,l),
(-64,593,l),
(158,613,l),
(107,696,l),
(37,-83,l),
(16,0,l),
(296,0,l),
(247,-83,l)
);
}
);
width = 326;
}
);
metricLeft = H;
unicode = 73;
}
{
glyphname = J;
kernLeft = J;
kernRight = J;
layers = (
{
anchors = (
{
name = top;
pos = (293,790);
}
);
layerId = m01;
shapes = (
{
closed = 1;
nodes = (
(34,255,l),
(-29,-39,l),
(-79,39,l),
(383,-37,l),
(217,-46,l),
(582,165,l),
(438,38,l),
(495,844,l),
(538,705,l),
(424,845,l),
(523,790,l),
(13,793,l),
(87,842,l),
(68,548,l),
(-15,593,l),
(356,619,l),
(283,696,l),
(258,108,l),
(361,238,l),
(202,148,l),
(282,148,l),
(-5,225,l)
);
}
);
width = 517;
}
);
unicode = 74;
}
{
glyphname = K;
kernLeft = H;
kernRight = K;
layers = (
{
anchors = (
{
name = bottom;
pos = (325,0);
},
{
name = top;
pos = (353,790);
}
);
layerId = m01;
shapes = (
{
closed = 1;
nodes = (
(301,844,l),
(344,705,l),
(230,845,l),
(329,790,l),
(-36,793,l),
(38,842,l),
(19,548,l),
(-64,593,l),
(158,613,l),
(107,696,l),
(37,-83,l),
(16,0,l),
(296,0,l),
(247,-83,l)
);
},
{
closed = 1;
nodes = (
(647,862,l),
(700,790,l),
(260,794,l),
(364,857,l),
(339,478,l),
(222,590,l),
(512,615,l),
(513,666,l),
(148,285,l),
(161,369,l),
(287,210,l),
(203,219,l),
(708,709,l),
(700,604,l)
);
},
{
closed = 1;
nodes = (
(738,-3,l),
(664,-52,l),
(683,242,l),
(766,197,l),
(503,177,l),
(617,142,l),
(438,500,l),
(489,498,l),
(254,364,l),
(285,405,l),
(454,-53,l),
(372,0,l)
);
}
);
width = 699;
}
);
metricLeft = H;
unicode = 75;
}
{
glyphname = N;
kernLeft = H;
kernRight = I;
layers = (
{
anchors = (
{
name = bottom;
pos = (346,0);
},
{
name = top;
pos = (442,790);
}
);
layerId = m01;
shapes = (
{
closed = 1;
nodes = (
(503,276,l),
(473,388,l),
(309,835,l),
(379,790,l),
(-36,793,l),
(38,842,l),
(19,548,l),
(-64,593,l),
(158,613,l),
(107,696,l),
(41,-83,l),
(16,0,l),
(296,0,l),
(249,-83,l),
(272,517,l),
(243,481,l),
(304,481,l),
(264,506,l),
(290,436,l),
(497,-54,l),
(435,0,l),
(676,0,l),
(641,-83,l),
(718,844,l),
(738,790,l),
(458,790,l),
(508,878,l),
(493,284,l),
(523,318,l),
(456,318,l)
);
}
);
width = 744;
}
);
metricLeft = H;
metricRight = I;
unicode = 78;
}
{
glyphname = P;
kernLeft = B;
kernRight = P;
layers = (
{
layerId = m01;
shapes = (
{
closed = 1;
nodes = (
(-1,0,l),
(295,0,l),
(262,-40,l),
(264,247,l),
(220,155,l),
(320,210,l),
(309,188,l),
(268,325,l),
(284,767,l),
(340,703,l),
(76,835,l),
(141,859,l),
(13,627,l),
(-20,651,l),
(166,600,l),
(105,690,l),
(43,-40,l)
);
},
{
closed = 1;
nodes = (
(170,216,l),
(499,102,l),
(270,76,l),
(695,276,l),
(604,141,l),
(657,776,l),
(715,717,l),
(293,832,l),
(368,831,l),
(186,628,l),
(170,639,l),
(503,606,l),
(442,680,l),
(438,272,l),
(474,362,l),
(391,297,l),
(503,317,l),
(218,341,l)
);
}
);
width = 669;
}
);
unicode = 80;
}
{
glyphname = Q;
kernLeft = O;
kernRight = Q;
layers = (
{
layerId = m01;
shapes = (
{
closed = 1;
nodes = (
(492,134,l),
(484,222,l),
(459,166,l),
(550,199,l),
(753,296,l),
(605,147,l),
(681,774,l),
(772,636,l),
(197,848,l),
(399,860,l),
(-87,610,l),
(67,790,l),
(30,15,l),
(-101,159,l),
(451,-50,l),
(291,0,l),
(730,-3,l),
(656,-52,l),
(675,242,l),
(758,197,l),
(470,171,l)
);
},
{
closed = 1;
nodes = (
(566,546,l),
(452,626,l),
(437,117,l),
(490,256,l),
(327,172,l),
(455,170,l),
(149,233,l),
(249,128,l),
(234,675,l),
(161,555,l),
(320,644,l),
(201,627,l)
);
}
);
width = 700;
}
);
metricLeft = O;
unicode = 81;
}
{
glyphname = R;
kernLeft = B;
kernRight = R;
layers = (
{
anchors = (
{
name = bottom;
pos = (325,0);
},
{
name = top;
pos = (367,790);
}
);
layerId = m01;
shapes = (
{
closed = 1;
nodes = (
(224,331,l),
(226,340,l),
(270,192,l),
(240,224,l),
(352,290,l),
(440,345,l),
(690,488,l),
(598,404,l),
(672,724,l),
(755,646,l),
(290,837,l),
(361,838,l),
(181,620,l),
(167,659,l),
(536,576,l),
(452,658,l),
(443,422,l),
(575,552,l)
);
},
{
closed = 1;
nodes = (
(1,0,l),
(297,0,l),
(256,-40,l),
(285,767,l),
(340,703,l),
(76,835,l),
(141,859,l),
(13,627,l),
(-20,651,l),
(166,600,l),
(105,690,l),
(45,-40,l)
);
},
{
closed = 1;
nodes = (
(724,-3,l),
(650,-52,l),
(669,242,l),
(752,197,l),
(497,177,l),
(611,142,l),
(475,398,l),
(309,325,l),
(448,-53,l),
(366,0,l)
);
}
);
width = 684;
}
);
metricLeft = P;
unicode = 82;
}
{
glyphname = S;
kernLeft = S;
kernRight = S;
layers = (
{
anchors = (
{
name = bottom;
pos = (318,0);
},
{
name = top;
pos = (354,790);
}
);
layerId = m01;
shapes = (
{
closed = 1;
nodes = (
(641,767,l),
(251,817,l),
(443,881,l),
(-30,621,l),
(98,821,l),
(65,300,l),
(7,386,l),
(290,273,l),
(92,292,l),
(460,323,l),
(325,378,l),
(462,259,l),
(417,396,l),
(399,115,l),
(451,192,l),
(333,131,l),
(433,144,l),
(17,229,l),
(75,327,l),
(-31,-41,l),
(-50,37,l),
(433,-27,l),
(346,-37,l),
(659,127,l),
(574,-24,l),
(638,501,l),
(742,353,l),
(396,517,l),
(568,494,l),
(237,452,l),
(327,421,l),
(240,489,l),
(267,425,l),
(292,680,l),
(246,613,l),
(377,687,l),
(268,649,l),
(613,565,l),
(548,510,l),
(638,881,l)
);
}
);
width = 655;
}
);
unicode = 83;
}
{
glyphname = U;
kernLeft = U;
kernRight = U;
layers = (
{
associatedMasterId = m01;
layerId = "A5637E47-4CE7-42D5-9FCA-D70D58CE9C17";
name = "001";
shapes = (
{
closed = 1;
nodes = (
(343,790,l),
(4,793,l),
(78,842,l),
(59,548,l),
(-24,591,l),
(242,614,l),
(161,681,l),
(15,70,l),
(-36,159,l),
(448,-39,l),
(376,-38,l),
(556,177,l),
(571,145,l),
(188,254,l),
(255,175,l),
(348,826,l),
(391,705,l),
(277,845,l)
);
},
{
closed = 1;
nodes = (
(447,-5,l),
(412,92,l),
(676,-40,l),
(611,-64,l),
(739,168,l),
(772,148,l),
(586,199,l),
(633,129,l),
(695,853,l),
(727,790,l),
(441,790,l),
(488,853,l)
);
}
);
width = 736;
},
{
anchors = (
{
name = ogonek;
pos = (365,1);
},
{
name = top;
pos = (396,790);
}
);
associatedMasterId = m01;
layerId = "15BDCCA4-8F33-4D76-8247-70F9EE2AB8F1";
name = "002";
shapes = (
{
closed = 1;
nodes = (
(-173,214,l),
(439,-55,l),
(283,-66,l),
(741,153,l),
(619,28,l),
(689,853,l),
(721,790,l),
(435,790,l),
(482,853,l),
(447,126,l),
(489,245,l),
(314,146,l),
(431,173,l),
(77,295,l),
(259,172,l),
(318,826,l),
(361,705,l),
(247,845,l),
(313,790,l),
(-26,793,l),
(48,842,l),
(29,548,l),
(-54,591,l),
(212,614,l),
(131,681,l),
(19,67,l)
);
}
);
width = 704;
},
{
anchors = (
{
name = ogonek;
pos = (587,1);
},
{
name = top;
pos = (407,790);
}
);
layerId = m01;
name = Regular;
shapes = (
{
closed = 1;
nodes = (
(727,790,l),
(431,790,l),
(472,830,l),
(441,23,l),
(386,87,l),
(650,-45,l),
(585,-69,l),
(713,163,l),
(746,139,l),
(560,190,l),
(621,100,l),
(683,830,l)
);
},
{
closed = 1;
nodes = (
(242,187,l),
(336,826,l),
(379,705,l),
(265,845,l),
(331,790,l),
(-8,793,l),
(66,842,l),
(47,548,l),
(-36,591,l),
(230,614,l),
(149,681,l),
(2,82,l),
(-17,133,l),
(440,-44,l),
(367,-43,l),
(547,172,l),
(563,149,l),
(206,220,l)
);
}
);
width = 716;
}
);
unicode = 85;
}
{
glyphname = W;
kernLeft = U;
kernRight = J;
layers = (
{
anchors = (
{
name = top;
pos = (580,790);
}
);
layerId = m01;
shapes = (
{
closed = 1;
nodes = (
(473,127,l),
(823,-66,l),
(615,-137,l),
(1067,199,l),
(975,37,l),
(1061,853,l),
(1069,790,l),
(783,790,l),
(848,853,l),
(798,93,l),
(848,159,l),
(584,276,l),
(626,224,l),
(692,853,l),
(700,790,l),
(414,790,l),
(479,853,l),
(429,93,l),
(479,159,l),
(156,302,l),
(233,123,l),
(329,826,l),
(372,705,l),
(258,845,l),
(324,790,l),
(-15,793,l),
(59,842,l),
(40,548,l),
(-43,590,l),
(223,623,l),
(142,681,l),
(-7,18,l),
(-71,224,l),
(454,-66,l),
(246,-137,l),
(601,127,l)
);
}
);
width = 1066;
},
{
associatedMasterId = m01;
layerId = "6BA5F4F6-C9CF-4A12-BB2F-E8F0F3EBFC62";
name = "000";
shapes = (
{
closed = 1;
nodes = (
(493,118,l),
(822,-60,l),
(572,-140,l),
(1047,164,l),
(975,37,l),
(1060,853,l),
(1068,790,l),
(782,790,l),
(847,853,l),
(798,93,l),
(848,165,l),
(600,269,l),
(625,189,l),
(694,853,l),
(702,790,l),
(416,790,l),
(481,853,l),
(432,93,l),
(482,165,l),
(168,297,l),
(245,112,l),
(324,826,l),
(367,705,l),
(253,845,l),
(319,790,l),
(-20,793,l),
(54,842,l),
(35,548,l),
(-48,590,l),
(218,623,l),
(137,681,l),
(5,7,l),
(-59,219,l),
(456,-60,l),
(206,-140,l),
(681,164,l)
);
}
);
width = 1063;
}
);
metricLeft = V;
metricRight = V;
unicode = 87;
}
{
glyphname = Y;
kernLeft = Y;
kernRight = J;
layers = (
{
anchors = (
{
name = top;
pos = (382,790);
}
);
layerId = m01;
shapes = (
{
closed = 1;
nodes = (
(592,-83,l),
(654,853,l),
(685,790,l),
(399,790,l),
(450,853,l),
(425,367,l),
(366,333,l),
(468,307,l),
(427,348,l),
(416,115,l),
(455,207,l),
(372,137,l),
(494,163,l),
(-36,196,l),
(66,242,l),
(47,-52,l),
(-8,-3,l),
(631,0,l),
(410,-32,l),
(688,180,l)
);
},
{
closed = 1;
nodes = (
(497,404,l),
(527,378,l),
(126,477,l),
(250,384,l),
(321,826,l),
(364,705,l),
(250,845,l),
(316,790,l),
(-23,793,l),
(51,842,l),
(32,548,l),
(-51,590,l),
(215,623,l),
(134,681,l),
(34,321,l),
(-101,399,l),
(410,194,l),
(315,196,l)
);
}
);
width = 678;
},
{
associatedMasterId = m01;
layerId = "0A3BE8B1-196C-45E0-9A27-73CE72EC707D";
name = "000";
shapes = (
{
closed = 1;
nodes = (
(452,215,l),
(412,283,l),
(367,-83,l),
(352,0,l),
(632,0,l),
(588,-83,l),
(650,853,l),
(681,790,l),
(395,790,l),
(446,853,l),
(421,322,l),
(387,197,l),
(350,241,l)
);
},
{
closed = 1;
nodes = (
(483,323,l),
(513,293,l),
(129,450,l),
(226,265,l),
(307,826,l),
(350,705,l),
(236,845,l),
(302,790,l),
(-37,793,l),
(37,842,l),
(18,548,l),
(-65,590,l),
(201,623,l),
(120,681,l),
(-14,160,l),
(-98,372,l),
(427,93,l),
(301,115,l)
);
}
);
width = 684;
}
);
metricRight = J;
unicode = 89;
}
{
glyphname = Z;
kernLeft = Z;
kernRight = Z;
layers = (
{
anchors = (
{
name = top;
pos = (330,790);
}
);
layerId = m01;
shapes = (
{
closed = 1;
nodes = (
(-103,153,l),
(149,-74,l),
(-20,0,l),
(661,-4,l),
(563,-69,l),
(588,319,l),
(698,200,l),
(201,163,l),
(346,110,l),
(224,263,l),
(256,115,l),
(324,232,l),
(626,827,l),
(660,638,l),
(435,862,l),
(604,790,l),
(-19,794,l),
(79,858,l),
(54,470,l),
(-56,585,l),
(360,623,l),
(277,674,l),
(384,555,l),
(365,672,l),
(297,564,l),
(-68,-42,l)
);
}
);
width = 600;
}
);
unicode = 90;
}
{
glyphname = underscore;
layers = (
{
layerId = m01;
shapes = (
{
closed = 1;
nodes = (
(-52,-127,l),
(331,-121,l),
(591,-125,l),
(499,-203,l),
(513,7,l),
(599,-32,l),
(285,-34,l),
(-64,-28,l),
(39,7,l),
(25,-204,l)
);
}
);
width = 540;
}
);
unicode = 95;
}
{
glyphname = a;
kernLeft = a;
kernRight = a;
layers = (
{
anchors = (
{
name = ogonek;
pos = (466,0);
},
{
name = top;
pos = (300,600);
}
);
layerId = m01;
shapes = (
{
closed = 1;
nodes = (
(367,467,l),
(299,493,l),
(352,430,l),
(334,500,l),
(334,441,l),
(325,431,l),
(303,-5,l),
(268,92,l),
(532,-40,l),
(467,-64,l),
(595,168,l),
(628,129,l),
(442,180,l),
(479,129,l),
(530,663,l),
(560,501,l),
(357,649,l),
(496,600,l),
(-3,603,l),
(71,652,l),
(52,358,l),
(-31,411,l)
);
},
{
closed = 1;
nodes = (
(364,398,l),
(346,460,l),
(-45,231,l),
(63,319,l),
(-1,48,l),
(-108,138,l),
(304,-41,l),
(232,-40,l),
(412,177,l),
(427,125,l),
(116,194,l),
(202,155,l),
(212,352,l),
(75,211,l)
);
}
);
width = 584;
}
);
metricRight = u;
unicode = 97;
}
{
glyphname = d;
kernLeft = o;
kernRight = l;
layers = (
{
anchors = (
{
name = top;
pos = (468,800);
}
);
layerId = m01;
name = Regular;
shapes = (
{
closed = 1;
nodes = (
(507,102,l),
(572,923,l),
(613,820,l),
(327,820,l),
(372,923,l),
(373,531,l),
(410,596,l),
(325,548,l),
(362,500,l),
(350,25,l),
(296,92,l),
(560,-40,l),
(495,-64,l),
(623,168,l),
(656,129,l),
(470,180,l)
);
},
{
closed = 1;
nodes = (
(463,536,l),
(144,655,l),
(392,685,l),
(-60,485,l),
(63,649,l),
(34,16,l),
(-61,78,l),
(340,-37,l),
(265,-36,l),
(447,167,l),
(463,128,l),
(163,158,l),
(224,112,l),
(215,518,l),
(179,426,l),
(262,491,l),
(163,471,l),
(415,438,l)
);
}
);
width = 613;
},
{
associatedMasterId = m01;
layerId = "94CE8F1C-E3AD-4B0E-B0F6-9DB600943EBB";
name = "001";
shapes = (
{
closed = 1;
nodes = (
(481,102,l),
(545,923,l),
(587,860,l),
(301,860,l),
(348,923,l),
(324,25,l),
(270,92,l),
(534,-40,l),
(469,-64,l),
(597,168,l),
(630,129,l),
(444,180,l)
);
},
{
closed = 1;
nodes = (
(437,536,l),
(136,655,l),
(361,682,l),
(-73,482,l),
(60,649,l),
(22,16,l),
(-74,78,l),
(314,-38,l),
(239,-37,l),
(421,167,l),
(437,128,l),
(150,158,l),
(214,112,l),
(205,518,l),
(166,426,l),
(249,491,l),
(150,471,l),
(389,438,l)
);
}
);
width = 583;
},
{
associatedMasterId = m01;
layerId = "D30852E3-EADC-49DF-90D1-395E81119153";
name = "002";
shapes = (
{
closed = 1;
nodes = (
(437,536,l),
(136,655,l),
(361,682,l),
(-73,482,l),
(60,649,l),
(22,16,l),
(-74,78,l),
(314,-38,l),
(239,-37,l),
(421,167,l),
(437,128,l),
(150,158,l),
(214,112,l),
(205,518,l),
(166,426,l),
(249,491,l),
(150,471,l),
(389,438,l)
);
},
{
closed = 1;
nodes = (
(586,769,l),
(472,909,l),
(549,859,l),
(205,862,l),
(280,911,l),
(261,617,l),
(177,666,l),
(433,714,l),
(350,784,l),
(345,542,l),
(384,601,l),
(299,553,l),
(336,511,l),
(324,25,l),
(270,92,l),
(534,-40,l),
(469,-64,l),
(597,168,l),
(630,129,l),
(444,180,l),
(481,102,l),
(545,923,l)
);
}
);
width = 583;
},
{
associatedMasterId = m01;
layerId = "583E48F4-5CBE-4E54-81B9-A4EE0E271593";
name = "003";
shapes = (
{
closed = 1;
nodes = (
(481,102,l),
(545,923,l),
(587,860,l),
(301,860,l),
(348,923,l),
(347,531,l),
(384,599,l),
(299,551,l),
(336,500,l),
(324,25,l),
(270,92,l),
(534,-40,l),
(469,-64,l),
(597,168,l),
(630,129,l),
(444,180,l)
);
},
{
closed = 1;
nodes = (
(437,536,l),
(136,655,l),
(361,682,l),
(-73,482,l),
(60,649,l),
(22,16,l),
(-74,78,l),
(314,-38,l),
(239,-37,l),
(421,167,l),
(437,128,l),
(150,158,l),
(214,112,l),
(205,518,l),
(166,426,l),
(249,491,l),
(150,471,l),
(389,438,l)
);
}
);
width = 583;
}
);
metricLeft = "=|p";
metricRight = l;
unicode = 100;
}
{
glyphname = e;
kernLeft = o;
kernRight = e;
layers = (
{
associatedMasterId = m01;
layerId = "A807E346-71FE-48DE-9D29-297487543B9F";
name = "001";
shapes = (
{
closed = 1;
nodes = (
(525,625,l),
(575,496,l),
(165,653,l),
(328,662,l),
(-65,468,l),
(54,608,l),
(19,5,l),
(-76,120,l),
(408,-34,l),
(348,-57,l),
(513,242,l),
(530,125,l),
(146,191,l),
(208,130,l),
(205,477,l),
(159,414,l),
(260,471,l),
(179,455,l),
(410,399,l),
(402,489,l),
(385,326,l),
(412,396,l),
(178,266,l),
(260,271,l),
(137,318,l),
(181,358,l),
(181,197,l),
(516,365,l),
(426,265,l)
);
}
);
width = 508;
},
{
anchors = (
{
name = bottom;
pos = (233,0);
},
{
name = ogonek;
pos = (414,0);
},
{
name = top;
pos = (283,600);
}
);
layerId = m01;
name = Regular;
shapes = (
{
closed = 1;
nodes = (
(407,412,l),
(325,454,l),
(315,257,l),
(448,390,l),
(147,223,l),
(161,160,l),
(567,362,l),
(465,291,l),
(539,560,l),
(631,468,l),
(219,647,l),
(356,656,l),
(-37,468,l),
(82,608,l),
(34,5,l),
(-9,104,l),
(321,-40,l),
(145,-10,l),
(529,0,l),
(476,-32,l),
(469,210,l),
(503,183,l),
(284,157,l),
(376,148,l),
(190,182,l),
(221,109,l),
(231,477,l),
(187,415,l),
(288,472,l),
(206,455,l)
);
}
);
width = 536;
}
);
metricLeft = o;
unicode = 101;
}
{
glyphname = f;
kernLeft = t;
kernRight = f;
layers = (
{
layerId = m01;
shapes = (
{
closed = 1;
nodes = (
(433,642,l),
(353,625,l),
(436,966,l),
(475,820,l),
(118,830,l),
(361,892,l),
(-40,678,l),
(95,855,l),
(104,559,l),
(140,600,l),
(-59,603,l),
(22,652,l),
(3,358,l),
(-87,443,l),
(159,438,l),
(94,498,l),
(32,-323,l),
(-9,-220,l),
(277,-220,l),
(229,-323,l),
(250,486,l),
(228,435,l),
(392,426,l),
(362,402,l),
(378,652,l),
(406,600,l),
(218,600,l),
(231,566,l),
(234,746,l),
(215,673,l),
(316,730,l),
(195,698,l)
);
}
);
width = 391;
},
{
associatedMasterId = m01;
layerId = "F219FFBB-1E68-42E4-AAE8-88A74F0D7582";
name = "001";
shapes = (
{
closed = 1;
nodes = (
(164,600,l),
(-35,603,l),
(46,652,l),
(27,358,l),
(-63,443,l),
(183,438,l),
(118,498,l),
(54,-323,l),
(12,-260,l),
(298,-260,l),
(251,-323,l),
(274,486,l),
(252,433,l),
(428,421,l),
(398,402,l),
(414,652,l),
(442,600,l),
(242,600,l),
(267,566,l),
(273,746,l),
(227,690,l),
(328,747,l),
(247,731,l),
(428,684,l),
(339,615,l),
(504,914,l),
(499,844,l),
(422,888,l),
(469,914,l),
(388,823,l),
(420,833,l),
(233,912,l),
(396,921,l),
(-8,715,l),
(113,855,l),
(132,559,l)
);
}
);
width = 453;
}
);
metricLeft = t;
unicode = 102;
}
{
glyphname = g;
kernLeft = o;
kernRight = g;
layers = (
{
associatedMasterId = m01;
layerId = "8286BC2D-6E8C-4E00-9DED-77D7ADDD542A";
name = "001";
shapes = (
{
closed = 1;
nodes = (
(144,646,l),
(315,655,l),
(-78,468,l),
(56,658,l),
(43,55,l),
(-45,117,l),
(231,10,l),
(187,68,l),
(202,-30,l),
(219,41,l),
(-41,-143,l),
(23,-38,l),
(19,-251,l),
(-24,-177,l),
(506,-305,l),
(347,-303,l),
(571,-161,l),
(537,-275,l),
(534,89,l),
(578,713,l),
(613,506,l)
);
},
{
closed = 1;
nodes = (
(376,506,l),
(372,117,l),
(403,176,l),
(323,129,l),
(362,184,l),
(363,64,l),
(412,48,l),
(369,103,l),
(391,-179,l),
(425,-105,l),
(344,-160,l),
(423,-150,l),
(109,-56,l),
(178,-110,l),
(162,-14,l),
(113,-103,l),
(479,133,l),
(496,125,l),
(179,197,l),
(235,151,l),
(212,527,l),
(166,410,l),
(267,467,l),
(158,451,l),
(421,404,l)
);
}
);
width = 586;
},
{
associatedMasterId = m01;
layerId = "7786D622-DC43-487F-B333-B5673FBDA5DA";
name = "002";
shapes = (
{
closed = 1;
nodes = (
(158,646,l),
(329,655,l),
(-64,468,l),
(70,658,l),
(57,55,l),
(-31,117,l),
(245,10,l),
(189,68,l),
(204,-30,l),
(221,41,l),
(-39,-143,l),
(25,-38,l),
(21,-251,l),
(-22,-177,l),
(508,-309,l),
(349,-307,l),
(573,-161,l),
(539,-275,l),
(536,89,l),
(592,713,l),
(627,506,l)
);
},
{
closed = 1;
nodes = (
(390,506,l),
(386,117,l),
(417,176,l),
(337,129,l),
(376,184,l),
(365,64,l),
(414,48,l),
(371,103,l),
(393,-179,l),
(427,-105,l),
(346,-160,l),
(425,-150,l),
(111,-56,l),
(180,-110,l),
(164,-14,l),
(115,-103,l),
(481,133,l),
(510,125,l),
(193,197,l),
(249,151,l),
(226,527,l),
(180,410,l),
(281,467,l),
(172,451,l),
(435,404,l)
);
}
);
width = 599;
},
{
associatedMasterId = m01;
layerId = "5557B6FC-4D6C-404F-BE74-71C0ADDBC260";
name = "003";
shapes = (
{
closed = 1;
nodes = (
(367,-48,l),
(290,-101,l),
(362,-77,l),
(-51,-39,l),
(51,14,l),
(32,-280,l),
(-23,-231,l),
(491,-220,l),
(322,-249,l),
(525,-101,l),
(488,-275,l),
(566,713,l),
(601,506,l),
(132,646,l),
(303,655,l),
(-90,468,l),
(44,658,l),
(31,55,l),
(-57,116,l),
(377,-61,l),
(231,-71,l),
(423,148,l),
(484,115,l),
(167,196,l),
(223,151,l),
(200,527,l),
(154,410,l),
(255,467,l),
(146,451,l),
(409,404,l),
(364,506,l),
(352,117,l),
(339,66,l),
(388,50,l),
(354,103,l),
(339,-179,l)
);
}
);
width = 573;
},
{
anchors = (
{
name = top;
pos = (314,600);
}
);
layerId = m01;
name = Regular;
shapes = (
{
closed = 1;
nodes = (
(152,646,l),
(323,655,l),
(-70,468,l),
(64,658,l),
(51,55,l),
(-37,117,l),
(239,10,l),
(215,41,l),
(-45,-143,l),
(39,-38,l),
(35,-251,l),
(-28,-177,l),
(492,-260,l),
(333,-258,l),
(557,-112,l),
(523,-226,l),
(530,89,l),
(586,713,l),
(621,506,l)
);
},
{
closed = 1;
nodes = (
(384,506,l),
(380,117,l),
(359,64,l),
(408,48,l),
(365,103,l),
(377,-130,l),
(411,-56,l),
(330,-111,l),
(409,-101,l),
(105,-56,l),
(186,-110,l),
(170,-14,l),
(109,-103,l),
(475,133,l),
(504,125,l),
(187,197,l),
(243,151,l),
(220,527,l),
(174,410,l),
(275,467,l),
(166,451,l),
(429,404,l)
);
}
);
width = 599;
}
);
unicode = 103;
}
{
glyphname = i;
kernLeft = i;
kernRight = i;
layers = (
{
layerId = m01;
shapes = (
{
ref = idotless;
},
{
pos = (40,0);
ref = dotaccentcomb;
}
);
width = 329;
},
{
associatedMasterId = m01;
layerId = "A84AA78C-8508-475E-9A25-593688D050FC";
name = "001";
shapes = (
{
closed = 1;
nodes = (
(281,600,l),
(-44,603,l),
(31,652,l),
(12,358,l),
(-72,407,l),
(174,455,l),
(109,491,l),
(20,-5,l),
(1,79,l),
(257,-39,l),
(193,-63,l),
(321,169,l),
(346,132,l),
(171,163,l),
(224,129,l),
(296,660,l),
(333,515,l),
(219,655,l)
);
},
{
closed = 1;
nodes = (
(285,896,l),
(314,863,l),
(43,857,l),
(95,890,l),
(85,652,l),
(45,700,l),
(281,692,l),
(238,648,l)
);
}
);
width = 315;
},
{
associatedMasterId = m01;
layerId = "12F14B01-17DE-4D57-9B31-7B1A37CC2780";
name = "002";
shapes = (
{
closed = 1;
nodes = (
(281,600,l),
(-44,603,l),
(31,652,l),
(12,358,l),
(-72,407,l),
(174,455,l),
(109,491,l),
(36,-5,l),
(17,79,l),
(273,-39,l),
(209,-63,l),
(337,169,l),
(362,132,l),
(187,163,l),
(240,129,l),
(296,660,l),
(333,515,l),
(219,655,l)
);
},
{
closed = 1;
nodes = (
(299,881,l),
(328,848,l),
(57,842,l),
(109,875,l),
(99,637,l),
(59,685,l),
(295,677,l),
(252,633,l)
);
}
);
width = 321;
}
);
unicode = 105;
}
{
glyphname = l;
kernLeft = h;
kernRight = l;
layers = (
{
anchors = (
{
name = bottom;
pos = (154,0);
},
{
name = top;
pos = (190,800);
}
);
layerId = m01;
shapes = (
{
closed = 1;
nodes = (
(321,735,l),
(207,875,l),
(269,820,l),
(-56,823,l),
(25,872,l),
(6,578,l),
(-84,627,l),
(162,675,l),
(106,736,l),
(41,-40,l),
(24,79,l),
(280,-39,l),
(216,-63,l),
(344,169,l),
(369,132,l),
(194,179,l),
(242,129,l),
(284,870,l)
);
}
);
width = 333;
},
{
associatedMasterId = m01;
layerId = "6A652126-BB79-4CE6-84A2-703E3F2590FD";
name = "001";
shapes = (
{
closed = 1;
nodes = (
(333,775,l),
(219,915,l),
(281,860,l),
(-44,863,l),
(31,912,l),
(12,618,l),
(-72,667,l),
(174,715,l),
(109,741,l),
(10,-5,l),
(-9,79,l),
(247,-39,l),
(183,-63,l),
(311,169,l),
(336,132,l),
(161,163,l),
(214,129,l),
(296,910,l)
);
}
);
width = 307;
},
{
associatedMasterId = m01;
layerId = "63E94DAA-AD51-44C8-9671-6CF473D29EEE";
name = "002";
shapes = (
{
closed = 1;
nodes = (
(333,775,l),
(219,915,l),
(281,860,l),
(-44,863,l),
(31,912,l),
(12,618,l),
(-72,667,l),
(174,715,l),
(109,741,l),
(28,-5,l),
(9,79,l),
(265,-39,l),
(201,-63,l),
(329,169,l),
(354,132,l),
(179,163,l),
(232,129,l),
(296,910,l)
);
}
);
width = 313;
}
);
metricLeft = h;
unicode = 108;
}
{
glyphname = n;
kernLeft = n;
kernRight = n;
layers = (
{
anchors = (
{
name = bottom;
pos = (303,0);
},
{
name = top;
pos = (351,600);
}
);
layerId = m01;
shapes = (
{
closed = 1;
nodes = (
(349,0,l),
(678,-3,l),
(604,-52,l),
(623,242,l),
(706,189,l),
(440,151,l),
(511,109,l),
(641,571,l),
(692,482,l),
(280,641,l),
(352,640,l),
(172,423,l),
(157,471,l),
(468,412,l),
(411,466,l),
(344,-36,l),
(298,85,l),
(412,-55,l)
);
},
{
closed = 1;
nodes = (
(281,605,l),
(316,508,l),
(52,640,l),
(117,664,l),
(-11,432,l),
(-44,471,l),
(142,420,l),
(105,471,l),
(54,-63,l),
(12,0,l),
(298,0,l),
(251,-63,l)
);
}
);
width = 661;
}
);
unicode = 110;
}
{
glyphname = o;
kernLeft = o;
kernRight = o;
layers = (
{
anchors = (
{
name = top;
pos = (303,600);
}
);
layerId = m01;
shapes = (
{
closed = 1;
nodes = (
(36,5,l),
(-66,133,l),
(393,-46,l),
(262,-53,l),
(633,118,l),
(506,-7,l),
(573,596,l),
(644,472,l),
(175,653,l),
(338,662,l),
(-55,468,l),
(64,608,l)
);
},
{
closed = 1;
nodes = (
(452,383,l),
(373,446,l),
(363,123,l),
(413,183,l),
(312,126,l),
(394,144,l),
(156,204,l),
(225,130,l),
(215,477,l),
(169,414,l),
(270,471,l),
(189,455,l)
);
}
);
width = 591;
},
{
associatedMasterId = m01;
layerId = "46B58F76-85A6-48ED-BD46-E3776696AAB1";
name = "001";
shapes = (
{
closed = 1;
nodes = (
(20,5,l),
(-81,133,l),
(378,-46,l),
(247,-53,l),
(618,118,l),
(494,-7,l),
(547,596,l),
(618,472,l),
(149,653,l),
(312,662,l),
(-81,468,l),
(33,608,l)
);
},
{
closed = 1;
nodes = (
(426,383,l),
(347,446,l),
(348,123,l),
(398,183,l),
(297,126,l),
(379,144,l),
(141,204,l),
(210,130,l),
(189,477,l),
(143,414,l),
(244,471,l),
(163,455,l)
);
}
);
width = 561;
}
);
unicode = 111;
}
{
glyphname = s;
kernLeft = s;
kernRight = s;
layers = (
{
anchors = (
{
name = bottom;
pos = (253,0);
},
{
name = top;
pos = (278,600);
}
);
layerId = m01;
shapes = (
{
closed = 1;
nodes = (
(496,586,l),
(196,624,l),
(339,666,l),
(-24,465,l),
(78,627,l),
(52,226,l),
(0,293,l),
(218,206,l),
(73,215,l),
(357,239,l),
(253,280,l),
(358,188,l),
(317,300,l),
(302,83,l),
(350,160,l),
(259,113,l),
(336,126,l),
(15,195,l),
(60,247,l),
(-22,-37,l),
(-36,23,l),
(332,-26,l),
(259,-29,l),
(505,97,l),
(445,-24,l),
(494,381,l),
(582,266,l),
(315,392,l),
(440,379,l),
(185,347,l),
(254,328,l),
(187,381,l),
(214,322,l),
(222,477,l),
(192,444,l),
(293,501,l),
(209,473,l),
(475,402,l),
(425,388,l),
(494,674,l)
);
}
);
width = 512;
},
{
associatedMasterId = m01;
layerId = "38C36059-E870-48FF-BE6D-ADBF792B77D8";
name = "001";
shapes = (
{
closed = 1;
nodes = (
(384,317,l),
(150,383,l),
(199,340,l),
(203,477,l),
(164,414,l),
(265,471,l),
(184,455,l),
(422,403,l),
(333,351,l),
(498,650,l),
(493,580,l),
(416,624,l),
(463,650,l),
(382,559,l),
(414,569,l),
(170,648,l),
(333,657,l),
(-60,468,l),
(62,627,l),
(12,236,l),
(-71,323,l),
(275,183,l),
(106,189,l),
(389,425,l)
);
},
{
closed = 1;
nodes = (
(-62,39,l),
(280,-32,l),
(147,-41,l),
(543,89,l),
(400,-24,l),
(449,381,l),
(533,281,l),
(207,394,l),
(326,404,l),
(43,195,l),
(98,281,l),
(312,215,l),
(256,262,l),
(253,112,l),
(299,153,l),
(208,106,l),
(309,102,l),
(-11,209,l),
(60,264,l),
(-59,-20,l)
);
}
);
width = 477;
},
{
associatedMasterId = m01;
layerId = "AEE7E87B-FCA7-46DE-B49B-D90D638AE81E";
name = "002";
shapes = (
{
closed = 1;
nodes = (
(348,188,l),
(307,300,l),
(292,83,l),
(340,160,l),
(249,113,l),
(326,126,l),
(5,195,l),
(50,247,l),
(-32,-37,l),
(-46,23,l),
(322,-26,l),
(269,-26,l),
(545,100,l),
(435,-24,l),
(484,381,l),
(572,266,l),
(305,392,l),
(430,379,l),
(175,347,l),
(244,328,l),
(177,381,l),
(204,322,l),
(212,477,l),
(170,424,l),
(271,481,l),
(189,458,l),
(451,391,l),
(361,339,l),
(526,638,l),
(521,568,l),
(444,612,l),
(491,638,l),
(410,547,l),
(442,557,l),
(176,653,l),
(339,662,l),
(-54,468,l),
(68,627,l),
(42,226,l),
(-10,293,l),
(208,206,l),
(63,215,l),
(347,239,l),
(243,280,l)
);
}
);
width = 503;
}
);
unicode = 115;
}
{
glyphname = t;
kernLeft = t;
kernRight = t;
layers = (
{
anchors = (
{
name = bottom;
pos = (178,0);
},
{
name = top;
pos = (205,800);
}
);
layerId = m01;
shapes = (
{
closed = 1;
nodes = (
(22,652,l),
(3,358,l),
(-83,442,l),
(159,438,l),
(97,491,l),
(55,-5,l),
(31,79,l),
(298,-39,l),
(234,-63,l),
(362,169,l),
(387,132,l),
(201,163,l),
(255,129,l),
(268,493,l),
(228,435,l),
(394,427,l),
(367,402,l),
(383,652,l),
(408,600,l),
(238,600,l),
(259,530,l),
(295,820,l),
(326,787,l),
(55,771,l),
(105,814,l),
(99,560,l),
(140,600,l),
(-55,603,l)
);
}
);
width = 384;
}
);
unicode = 116;
}
{
glyphname = v;
kernLeft = u;
kernRight = v;
layers = (
{
layerId = m01;
shapes = (
{
closed = 1;
nodes = (
(548,82,l),
(603,663,l),
(645,600,l),
(359,600,l),
(406,663,l),
(381,116,l),
(448,128,l),
(239,218,l),
(261,124,l),
(313,636,l),
(359,515,l),
(245,655,l),
(308,600,l),
(-21,603,l),
(53,652,l),
(34,358,l),
(-49,411,l),
(217,449,l),
(146,491,l),
(36,19,l),
(15,148,l),
(407,-57,l),
(285,-56,l),
(606,168,l)
);
}
);
width = 623;
}
);
metricLeft = u;
unicode = 118;
}
{
glyphname = w;
kernLeft = u;
kernRight = v;
layers = (
{
anchors = (
{
name = top;
pos = (503,600);
}
);
layerId = m01;
shapes = (
{
closed = 1;
nodes = (
(548,82,l),
(603,663,l),
(645,600,l),
(359,600,l),
(406,663,l),
(381,116,l),
(448,128,l),
(239,218,l),
(261,124,l),
(313,636,l),
(359,515,l),
(245,655,l),
(308,600,l),
(-21,603,l),
(53,652,l),
(34,358,l),
(-49,411,l),
(217,449,l),
(146,491,l),
(36,19,l),
(15,148,l),
(407,-57,l),
(285,-56,l),
(606,168,l)
);
},
{
closed = 1;
nodes = (
(357,70,l),
(341,105,l),
(692,-57,l),
(570,-56,l),
(891,168,l),
(833,82,l),
(888,663,l),
(940,600,l),
(654,600,l),
(691,663,l),
(666,116,l),
(733,128,l),
(473,220,l),
(536,229,l)
);
}
);
width = 908;
}
);
metricLeft = u;
metricRight = v;
unicode = 119;
}
{
glyphname = braceleft;
layers = (
{
layerId = m01;
shapes = (
{
closed = 1;
nodes = (
(206,732,l),
(162,708,l),
(371,734,l),
(329,692,l),
(322,887,l),
(373,842,l),
(36,790,l),
(101,874,l),
(101,431,l),
(126,482,l),
(-3,376,l),
(14,434,l),
(8,263,l),
(-6,334,l),
(132,235,l),
(96,301,l),
(83,-126,l),
(38,-73,l),
(340,-125,l),
(316,-172,l),
(323,23,l),
(363,-19,l),
(144,10,l),
(190,-11,l),
(193,351,l),
(225,291,l),
(74,373,l),
(67,340,l),
(219,430,l),
(197,391,l)
);
}
);
width = 338;
}
);
metricLeft = "=10";
metricRight = "=10";
unicode = 123;
}
{
glyphname = exclamdown;
layers = (
{
layerId = m01;
shapes = (
{
closed = 1;
nodes = (
(286,639,l),
(324,606,l),
(53,600,l),
(105,633,l),
(95,395,l),
(55,443,l),
(291,439,l),
(268,391,l)
);
},
{
closed = 1;
nodes = (
(249,-325,l),
(259,385,l),
(301,360,l),
(55,363,l),
(105,402,l),
(28,-307,l),
(-14,-220,l),
(303,-220,l)
);
}
);
width = 314;
}
);
metricLeft = "=|exclam";
metricRight = "=|exclam";
unicode = 161;
}
{
glyphname = degree;
layers = (
{
layerId = m01;
shapes = (
{
closed = 1;
nodes = (
(20,595,l),
(-18,643,l),
(180,562,l),
(132,559,l),
(288,638,l),
(244,591,l),
(261,817,l),
(288,769,l),
(95,852,l),
(156,856,l),
(-18,768,l),
(22,820,l)
);
},
{
closed = 1;
nodes = (
(210,740,l),
(184,766,l),
(187,639,l),
(210,679,l),
(118,639,l),
(211,651,l),
(73,674,l),
(88,646,l),
(101,787,l),
(62,730,l),
(153,769,l),
(71,766,l)
);
}
);
width = 278;
}
);
unicode = 176;
}
{
glyphname = questiondown;
layers = (
{
layerId = m01;
shapes = (
{
closed = 1;
nodes = (
(427,639,l),
(465,606,l),
(194,600,l),
(246,633,l),
(236,395,l),
(196,443,l),
(432,439,l),
(409,391,l)
);
},
{
closed = 1;
nodes = (
(190,169,l),
(129,63,l),
(248,135,l),
(117,107,l),
(401,83,l),
(250,54,l),
(451,177,l),
(394,85,l),
(404,386,l),
(447,360,l),
(201,364,l),
(245,392,l),
(225,182,l),
(260,263,l),
(189,214,l),
(279,226,l),
(36,264,l),
(231,292,l),
(-69,96,l),
(27,282,l),
(-25,-204,l),
(-61,-74,l),
(248,-255,l),
(132,-242,l),
(496,-224,l),
(453,-266,l),
(424,25,l),
(455,-29,l),
(123,-67,l),
(256,-74,l),
(144,17,l),
(162,-106,l)
);
}
);
width = 452;
}
);
metricLeft = "=|question";
metricRight = "=|question";
unicode = 191;
}
{
glyphname = AE;
kernLeft = A;
kernRight = E;
layers = (
{
layerId = m01;
shapes = (
{
closed = 1;
nodes = (
(10,-44,l),
(-27,0,l),
(269,0,l),
(221,-44,l),
(308,684,l),
(344,695,l),
(159,594,l),
(184,659,l),
(214,560,l),
(243,623,l),
(171,587,l),
(72,526,l),
(130,614,l)
);
},
{
closed = 1;
nodes = (
(188,248,l),
(520,332,l),
(523,443,l),
(187,357,l)
);
},
{
closed = 1;
nodes = (
(582,332,l),
(838,329,l),
(805,295,l),
(821,545,l),
(852,485,l),
(595,467,l)
);
},
{
closed = 1;
nodes = (
(373,661,l),
(456,591,l),
(437,685,l),
(397,-54,l),
(354,85,l),
(468,-55,l),
(365,0,l),
(945,0,l),
(868,-52,l),
(887,242,l),
(973,197,l),
(552,168,l),
(594,131,l),
(608,350,l),
(613,446,l),
(628,682,l),
(571,576,l),
(694,645,l),
(602,620,l),
(919,592,l),
(872,571,l),
(931,860,l),
(1003,790,l),
(579,801,l),
(768,861,l),
(481,722,l),
(600,710,l),
(424,844,l),
(625,790,l),
(-34,793,l),
(40,842,l),
(21,548,l),
(-62,588,l),
(488,628,l)
);
}
);
width = 899;
}
);
metricLeft = A;
metricRight = E;
unicode = 198;
}
{
glyphname = Oslash;
kernLeft = O;
kernRight = O;
layers = (
{
layerId = m01;
shapes = (
{
closed = 1;
nodes = (
(544,701,l),
(446,591,l),
(275,347,l),
(240,284,l),
(321,310,l),
(205,321,l),
(275,362,l),
(108,124,l),
(-23,-39,l),
(-22,29,l),
(161,-45,l),
(72,-95,l),
(203,95,l),
(298,202,l),
(454,424,l),
(495,486,l),
(410,460,l),
(527,449,l),
(457,408,l),
(640,671,l),
(769,832,l),
(766,759,l),
(587,842,l),
(674,888,l)
);
},
{
closed = 1;
nodes = (
(41,15,l),
(-90,159,l),
(511,-50,l),
(345,-59,l),
(784,160,l),
(624,0,l),
(711,774,l),
(802,636,l),
(227,848,l),
(429,860,l),
(-76,610,l),
(78,790,l)
);
},
{
closed = 1;
nodes = (
(596,549,l),
(482,626,l),
(467,117,l),
(543,247,l),
(384,157,l),
(503,178,l),
(160,237,l),
(260,128,l),
(245,675,l),
(172,555,l),
(331,644,l),
(212,627,l)
);
}
);
width = 738;
}
);
unicode = 216;
}
{
glyphname = Thorn;
kernLeft = I;
kernRight = P;
layers = (
{
layerId = m01;
shapes = (
{
closed = 1;
nodes = (
(170,195,l),
(499,67,l),
(270,41,l),
(695,241,l),
(604,106,l),
(657,741,l),
(715,592,l),
(293,707,l),
(375,706,l),
(193,503,l),
(170,514,l),
(503,481,l),
(442,645,l),
(438,237,l),
(474,329,l),
(391,264,l),
(503,284,l),
(218,308,l)
);
},
{
closed = 1;
nodes = (
(268,274,l),
(280,550,l),
(327,597,l),
(241,612,l),
(276,568,l),
(301,844,l),
(344,705,l),
(230,845,l),
(329,790,l),
(-36,793,l),
(38,842,l),
(19,548,l),
(-64,593,l),
(158,613,l),
(107,696,l),
(37,-83,l),
(16,0,l),
(296,0,l),
(256,-40,l),
(264,247,l),
(220,131,l),
(320,186,l)
);
}
);
width = 662;
}
);
metricRight = P;
unicode = 222;
}
{
export = 0;
glyphname = eth;
layers = (
{
layerId = m01;
shapes = (
{
closed = 1;
nodes = (
(363,123,l),
(413,183,l),
(312,126,l),
(394,144,l),
(156,204,l),
(225,130,l),
(215,477,l),
(179,399,l),
(262,464,l),
(163,444,l),
(415,414,l),
(463,503,l),
(138,624,l),
(338,641,l),
(-55,447,l),
(64,608,l),
(36,5,l),
(-66,133,l),
(393,-46,l),
(262,-53,l),
(633,118,l),
(506,-7,l),
(573,641,l),
(595,446,l),
(421,866,l),
(466,859,l),
(244,748,l),
(237,817,l),
(386,532,l),
(435,582,l),
(330,503,l),
(374,525,l)
);
},
{
closed = 1;
nodes = (
(185,539,l),
(480,703,l),
(654,792,l),
(567,690,l),
(498,848,l),
(600,868,l),
(405,763,l),
(127,621,l),
(220,726,l),
(307,533,l)
);
}
);
width = 600;
}
);
unicode = 240;
}
{
glyphname = thorn;
kernLeft = l;
kernRight = p;
layers = (
{
layerId = m01;
shapes = (
{
closed = 1;
nodes = (
(142,64,l),
(460,-55,l),
(231,-81,l),
(665,119,l),
(532,-49,l),
(570,584,l),
(666,522,l),
(254,637,l),
(329,636,l),
(147,433,l),
(131,472,l),
(442,442,l),
(378,488,l),
(387,82,l),
(426,174,l),
(343,109,l),
(442,129,l),
(190,162,l)
);
},
{
closed = 1;
nodes = (
(-10,-220,l),
(276,-220,l),
(231,-323,l),
(230,69,l),
(191,4,l),
(276,52,l),
(233,100,l),
(242,536,l),
(236,539,l),
(265,848,l),
(314,730,l),
(200,870,l),
(284,820,l),
(-50,823,l),
(25,872,l),
(6,578,l),
(-78,627,l),
(168,675,l),
(93,711,l),
(32,-323,l)
);
}
);
width = 604;
}
);
metricLeft = l;
metricRight = p;
unicode = 254;
}
{
glyphname = Eogonek;
kernLeft = E;
kernRight = E;
layers = (
{
anchors = (
{
name = ogonek;
pos = (447,0);
},
{
name = top;
pos = (301,790);
}
);
layerId = m01;
shapes = (
{
closed = 1;
nodes = (
(218,332,l),
(474,329,l),
(441,295,l),
(457,545,l),
(488,485,l),
(231,467,l)
);
},
{
closed = 1;
nodes = (
(504,-52,l),
(523,242,l),
(609,196,l),
(188,168,l),
(230,131,l),
(244,350,l),
(249,446,l),
(264,682,l),
(207,576,l),
(330,645,l),
(238,620,l),
(555,592,l),
(508,571,l),
(567,860,l),
(639,790,l),
(215,801,l),
(404,861,l),
(-72,631,l),
(86,828,l),
(25,-45,l),
(1,0,l),
(434,-2,l),
(387,23,l),
(417,-38,l),
(430,11,l),
(340,-40,l),
(349,15,l),
(349,-198,l),
(335,-153,l),
(449,-221,l),
(407,-227,l),
(550,-189,l),
(537,-205,l),
(503,-105,l),
(529,-111,l),
(420,-148,l),
(465,-144,l),
(402,-107,l),
(419,-137,l),
(424,6,l),
(406,-75,l),
(532,18,l)
);
}
);
width = 535;
}
);
unicode = 280;
}
{
glyphname = eogonek;
kernLeft = o;
kernRight = e;
layers = (
{
anchors = (
{
name = bottom;
pos = (233,0);
},
{
name = ogonek;
pos = (414,0);
},
{
name = top;
pos = (283,600);
}
);
layerId = m01;
shapes = (
{
closed = 1;
nodes = (
(476,-32,l),
(469,210,l),
(503,183,l),
(284,157,l),
(376,148,l),
(190,182,l),
(221,109,l),
(231,477,l),
(187,415,l),
(288,472,l),
(206,455,l),
(407,412,l),
(325,454,l),
(315,257,l),
(448,390,l),
(147,223,l),
(161,160,l),
(567,362,l),
(465,291,l),
(539,560,l),
(631,468,l),
(219,647,l),
(356,656,l),
(-37,468,l),
(82,608,l),
(34,5,l),
(-9,104,l),
(321,-40,l),
(145,-10,l),
(377,-2,l),
(354,23,l),
(384,-38,l),
(396,12,l),
(308,-43,l),
(316,15,l),
(316,-198,l),
(302,-153,l),
(416,-221,l),
(374,-227,l),
(517,-189,l),
(504,-205,l),
(470,-105,l),
(496,-111,l),
(387,-148,l),
(432,-144,l),
(369,-107,l),
(386,-137,l),
(391,6,l),
(373,-75,l),
(499,18,l)
);
}
);
width = 536;
}
);
metricLeft = e;
metricRight = e;
unicode = 281;
}
{
glyphname = IJ;
layers = (
{
anchors = (
{
name = top;
pos = (619,790);
}
);
layerId = m01;
shapes = (
{
ref = I;
},
{
closed = 1;
nodes = (
(360,246,l),
(297,-48,l),
(247,30,l),
(699,-35,l),
(533,-46,l),
(898,165,l),
(754,38,l),
(811,844,l),
(854,705,l),
(740,845,l),
(839,790,l),
(329,793,l),
(403,842,l),
(384,548,l),
(301,593,l),
(672,619,l),
(599,696,l),
(574,108,l),
(677,238,l),
(518,148,l),
(598,150,l),
(321,216,l)
);
}
);
width = 833;
}
);
metricLeft = I;
metricRight = J;
unicode = 306;
}
{
export = 0;
glyphname = eturned;
kernRight = o;
layers = (
{
layerId = m01;
shapes = (
{
closed = 1;
nodes = (
(129,188,l),
(211,146,l),
(221,343,l),
(88,210,l),
(389,377,l),
(375,440,l),
(-31,238,l),
(71,309,l),
(-3,40,l),
(-95,132,l),
(317,-47,l),
(180,-56,l),
(573,132,l),
(454,-8,l),
(502,595,l),
(545,496,l),
(215,640,l),
(391,610,l),
(7,600,l),
(60,632,l),
(67,390,l),
(33,417,l),
(252,443,l),
(160,452,l),
(346,418,l),
(315,491,l),
(305,123,l),
(349,185,l),
(248,128,l),
(330,145,l)
);
}
);
width = 536;
}
);
metricLeft = "=|e";
metricRight = "=|o";
unicode = 477;
}
{
glyphname = jdotless;
kernLeft = j;
kernRight = j;
layers = (
{
anchors = (
{
name = top;
pos = (170,600);
}
);
layerId = m01;
shapes = (
{
closed = 1;
nodes = (
(243,-128,l),
(284,650,l),
(321,515,l),
(207,655,l),
(269,600,l),
(-56,603,l),
(25,652,l),
(6,358,l),
(-84,407,l),
(162,455,l),
(101,481,l),
(55,-188,l),
(86,-124,l),
(-46,-271,l),
(-25,-183,l),
(83,-275,l),
(-35,-299,l),
(289,-47,l)
);
}
);
width = 315;
}
);
unicode = 567;
}
{
glyphname = gravecomb;
layers = (
{
anchors = (
{
name = _top;
pos = (176,600);
}
);
layerId = m01;
shapes = (
{
closed = 1;
nodes = (
(68,874,l),
(35,782,l),
(24,854,l),
(231,614,l),
(131,646,l),
(287,711,l),
(280,643,l),
(176,887,l),
(218,850,l),
(26,830,l)
);
}
);
width = 306;
}
);
metricLeft = "=50";
metricRight = "=50";
unicode = 768;
}
{
glyphname = acutecomb;
layers = (
{
anchors = (
{
name = _top;
pos = (130,600);
}
);
layerId = m01;
shapes = (
{
closed = 1;
nodes = (
(88,849,l),
(130,886,l),
(26,642,l),
(19,710,l),
(175,645,l),
(75,613,l),
(282,853,l),
(271,781,l),
(238,873,l),
(280,829,l)
);
}
);
width = 306;
}
);
metricLeft = "=50";
metricRight = "=50";
unicode = 769;
}
{
glyphname = brevecomb;
layers = (
{
anchors = (
{
name = _top;
pos = (192,600);
}
);
layerId = m01;
shapes = (
{
closed = 1;
nodes = (
(224,667,l),
(178,664,l),
(332,721,l),
(305,705,l),
(335,830,l),
(359,806,l),
(190,811,l),
(245,858,l),
(235,744,l),
(292,787,l),
(147,721,l),
(251,744,l),
(110,767,l),
(147,733,l),
(135,845,l),
(180,811,l),
(23,806,l),
(46,822,l),
(84,680,l),
(24,719,l)
);
}
);
width = 379;
}
);
metricLeft = "=50";
metricRight = "=50";
unicode = 774;
}
{
glyphname = dieresiscomb;
layers = (
{
anchors = (
{
name = _top;
pos = (232,600);
}
);
layerId = m01;
shapes = (
{
closed = 1;
nodes = (
(226,861,l),
(259,831,l),
(10,825,l),
(58,856,l),
(48,637,l),
(12,679,l),
(229,675,l),
(194,633,l)
);
},
{
closed = 1;
nodes = (
(443,861,l),
(476,831,l),
(227,825,l),
(275,856,l),
(265,637,l),
(229,679,l),
(446,675,l),
(411,633,l)
);
}
);
width = 489;
},
{
associatedMasterId = m01;
layerId = "8385CC0D-A3CA-46C7-952A-21B34C86B150";
name = "001";
shapes = (
{
closed = 1;
nodes = (
(223,896,l),
(252,863,l),
(-19,857,l),
(33,890,l),
(23,652,l),
(-17,698,l),
(219,694,l),
(176,648,l)
);
},
{
closed = 1;
nodes = (
(464,896,l),
(493,863,l),
(222,857,l),
(274,890,l),
(264,652,l),
(224,698,l),
(460,694,l),
(417,648,l)
);
}
);
width = 483;
}
);
metricLeft = "=50";
metricRight = "=50";
unicode = 776;
}
{
glyphname = commaaccentcomb;
layers = (
{
anchors = (
{
name = _bottom;
pos = (143,0);
}
);
layerId = m01;
shapes = (
{
closed = 1;
nodes = (
(48,-74,l),
(75,-35,l),
(44,-305,l),
(23,-247,l),
(190,-271,l),
(99,-320,l),
(231,-50,l),
(231,-124,l),
(189,-35,l),
(241,-74,l)
);
}
);
width = 263;
}
);
metricLeft = "=50";
metricRight = "=50";
unicode = 806;
}
{
glyphname = cedillacomb;
layers = (
{
anchors = (
{
name = _bottom;
pos = (134,0);
}
);
layerId = m01;
shapes = (
{
closed = 1;
nodes = (
(199,-120,l),
(170,-86,l),
(171,-167,l),
(186,-136,l),
(122,-164,l),
(161,-164,l),
(68,-114,l),
(101,-108,l),
(45,-197,l),
(36,-184,l),
(173,-239,l),
(135,-233,l),
(250,-174,l),
(232,-223,l),
(253,-52,l),
(257,-96,l),
(186,-22,l),
(226,-44,l),
(132,-40,l),
(156,-81,l),
(191,71,l),
(208,49,l),
(58,49,l),
(103,74,l),
(82,-121,l),
(59,-88,l)
);
}
);
width = 299;
}
);
metricLeft = "=50";
metricRight = "=50";
unicode = 807;
}
{
glyphname = emdash;
layers = (
{
layerId = m01;
shapes = (
{
closed = 1;
nodes = (
(-46,278,l),
(437,284,l),
(807,280,l),
(715,213,l),
(729,423,l),
(815,374,l),
(391,372,l),
(-58,378,l),
(45,423,l),
(31,212,l)
);
}
);
width = 761;
}
);
metricLeft = hyphen;
metricRight = hyphen;
unicode = 8212;
}
{
glyphname = quoteleft;
kernLeft = quoteleft;
kernRight = quoteleft;
layers = (
{
layerId = m01;
shapes = (
{
closed = 1;
nodes = (
(141,762,l),
(151,929,l),
(178,863,l),
(54,879,l),
(99,936,l),
(20,607,l),
(-22,708,l),
(88,564,l),
(29,629,l),
(259,630,l),
(207,597,l),
(217,835,l),
(257,792,l),
(91,788,l)
);
}
);
width = 250;
}
);
metricLeft = "=|quoteright";
metricRight = "=|quoteright";
unicode = 8216;
}
{
glyphname = quoteright;
kernLeft = quoteright;
kernRight = quoteright;
layers = (
{
layerId = m01;
shapes = (
{
closed = 1;
nodes = (
(109,658,l),
(99,491,l),
(72,557,l),
(196,541,l),
(151,484,l),
(230,813,l),
(272,712,l),
(162,856,l),
(221,791,l),
(-9,790,l),
(43,823,l),
(33,585,l),
(-7,628,l),
(159,632,l)
);
}
);
width = 250;
}
);
metricLeft = "=35";
metricRight = "=28";
unicode = 8217;
}
{
glyphname = bullet;
layers = (
{
layerId = m01;
shapes = (
{
closed = 1;
nodes = (
(35,247,l),
(8,283,l),
(152,224,l),
(117,222,l),
(231,279,l),
(199,243,l),
(212,409,l),
(231,372,l),
(90,432,l),
(135,435,l),
(8,371,l),
(37,410,l)
);
}
);
width = 245;
}
);
metricLeft = "=35";
metricRight = "=35";
unicode = 8226;
}
{
glyphname = ellipsis;
kernLeft = period;
kernRight = period;
layers = (
{
layerId = m01;
shapes = (
{
ref = period;
},
{
pos = (221,0);
ref = period;
},
{
pos = (442,0);
ref = period;
}
);
width = 700;
},
{
associatedMasterId = m01;
layerId = "5A445693-9CB7-4049-9AD1-26E4880477E8";
name = "001";
shapes = (
{
closed = 1;
nodes = (
(213,199,l),
(242,165,l),
(-29,161,l),
(23,193,l),
(13,-45,l),
(-27,1,l),
(209,-3,l),
(166,-49,l)
);
},
{
closed = 1;
nodes = (
(442,199,l),
(471,165,l),
(200,161,l),
(252,193,l),
(242,-45,l),
(202,1,l),
(438,-3,l),
(395,-49,l)
);
},
{
closed = 1;
nodes = (
(669,199,l),
(698,165,l),
(427,161,l),
(479,193,l),
(469,-45,l),
(429,1,l),
(665,-3,l),
(622,-49,l)
);
}
);
width = 677;
}
);
metricLeft = period;
metricRight = period;
unicode = 8230;
}
{
glyphname = guilsinglleft;
layers = (
{
layerId = m01;
shapes = (
{
closed = 1;
nodes = (
(246,47,l),
(174,53,l),
(302,189,l),
(302,127,l),
(83,344,l),
(83,282,l),
(310,520,l),
(308,452,l),
(169,577,l),
(235,581,l),
(-84,205,l),
(-86,409,l)
);
}
);
width = 289;
}
);
unicode = 8249;
}
{
glyphname = .notdef;
layers = (
{
layerId = m01;
shapes = (
{
closed = 1;
nodes = (
(588,731,l),
(542,748,l),
(536,126,l),
(546,533,l),
(526,-35,l),
(570,-14,l),
(110,-14,l),
(156,-31,l),
(162,591,l),
(152,184,l),
(172,752,l),
(128,731,l)
);
},
{
closed = 1;
nodes = (
(2,820,l),
(67,894,l),
(60,184,l),
(70,591,l),
(49,-146,l),
(4,-103,l),
(696,-103,l),
(631,-177,l),
(638,533,l),
(628,126,l),
(649,863,l),
(694,820,l)
);
},
{
closed = 1;
nodes = (
(366,223,l),
(349,239,l),
(480,242,l),
(455,226,l),
(460,341,l),
(479,318,l),
(365,320,l),
(380,343,l)
);
},
{
closed = 1;
nodes = (
(226,223,l),
(209,239,l),
(340,242,l),
(315,226,l),
(320,341,l),
(339,318,l),
(225,320,l),
(240,343,l)
);
},
{
closed = 1;
nodes = (
(430,461,l),
(281,462,l),
(318,477,l),
(189,399,l),
(177,449,l),
(251,340,l),
(220,348,l),
(315,418,l),
(281,413,l),
(428,409,l),
(387,422,l),
(481,345,l),
(448,341,l),
(532,446,l),
(513,395,l),
(388,477,l)
);
}
);
width = 698;
},
{
associatedMasterId = m01;
layerId = "8455ECAC-EAC5-4767-8283-9BC5860A86E6";
name = "001";
shapes = (
{
closed = 1;
nodes = (
(29,-35,l),
(-67,93,l),
(483,-36,l),
(311,-58,l),
(718,88,l),
(597,-7,l),
(630,822,l),
(695,698,l),
(122,836,l),
(339,856,l),
(-64,684,l),
(49,794,l)
);
},
{
closed = 1;
nodes = (
(540,621,l),
(452,728,l),
(469,61,l),
(529,164,l),
(407,95,l),
(511,124,l),
(118,166,l),
(199,54,l),
(184,729,l),
(129,629,l),
(251,698,l),
(149,672,l)
);
},
{
closed = 1;
nodes = (
(302,460,l),
(202,220,l),
(175,137,l),
(211,209,l),
(184,209,l),
(173,132,l),
(233,107,l),
(320,321,l),
(347,396,l),
(275,330,l),
(372,330,l),
(298,395,l),
(329,321,l),
(434,85,l),
(493,111,l),
(485,191,l),
(451,191,l),
(488,118,l),
(460,201,l),
(343,462,l),
(349,332,l),
(450,576,l),
(476,657,l),
(435,586,l),
(474,586,l),
(474,651,l),
(414,676,l),
(332,474,l),
(306,396,l),
(376,463,l),
(278,463,l),
(349,396,l),
(322,474,l),
(221,696,l),
(162,671,l),
(173,595,l),
(209,595,l),
(166,669,l),
(194,583,l),
(307,330,l)
);
}
);
width = 644;
}
);
metricLeft = "=50";
metricRight = "=50";
}
{
glyphname = dieresiscomb.alt;
layers = (
{
anchors = (
{
name = _top;
pos = (236,600);
}
);
layerId = m01;
shapes = (
{
closed = 1;
nodes = (
(222,861,l),
(255,830,l),
(6,824,l),
(58,856,l),
(48,637,l),
(8,680,l),
(225,676,l),
(190,633,l)
);
},
{
closed = 1;
nodes = (
(422,861,l),
(455,830,l),
(206,824,l),
(258,856,l),
(248,637,l),
(208,680,l),
(425,676,l),
(390,633,l)
);
}
);
width = 468;
}
);
metricLeft = "=50";
metricRight = "=50";
}
{
glyphname = ogonekcomb.alt;
layers = (
{
anchors = (
{
name = _ogonek;
pos = (148,0);
}
);
layerId = m01;
shapes = (
{
closed = 1;
nodes = (
(204,-105,l),
(230,-111,l),
(121,-148,l),
(166,-144,l),
(103,-107,l),
(120,-137,l),
(125,6,l),
(107,-75,l),
(233,38,l),
(217,6,l),
(135,69,l),
(88,23,l),
(118,-38,l),
(130,12,l),
(42,-43,l),
(50,15,l),
(50,-198,l),
(36,-153,l),
(150,-221,l),
(108,-227,l),
(251,-189,l),
(238,-205,l)
);
}
);
width = 284;
}
);
metricLeft = ogonekcomb;
metricRight = ogonekcomb;
}
{
export = 0;
glyphname = sectionbowl;
layers = (
{
layerId = m01;
shapes = (
{
closed = 1;
nodes = (
(421,70,l),
(374,192,l),
(360,-22,l),
(408,53,l),
(317,6,l),
(354,11,l),
(57,51,l),
(96,107,l),
(44,-184,l),
(24,-143,l),
(350,-157,l),
(317,-162,l),
(563,-36,l),
(523,-129,l),
(571,273,l),
(607,156,l),
(326,274,l),
(461,245,l),
(165,226,l),
(260,217,l),
(189,276,l),
(202,214,l),
(214,430,l),
(187,344,l),
(295,416,l),
(252,471,l),
(13,339,l),
(49,432,l),
(17,118,l),
(-2,214,l),
(196,91,l),
(20,97,l),
(424,129,l),
(301,151,l)
);
}
);
width = 600;
}
);
}
